<svg width="19" height="19" viewBox="0 0 19 19" fill="none" xmlns="http://www.w3.org/2000/svg">
<path d="M18.7402 15.7606L15.0404 12.3547C14.8734 12.2009 14.6471 12.1155 14.4096 12.1155H13.8047C14.8289 10.9096 15.4375 9.39277 15.4375 7.74273C15.4375 3.81748 11.9826 0.636963 7.71875 0.636963C3.45488 0.636963 0 3.81748 0 7.74273C0 11.668 3.45488 14.8485 7.71875 14.8485C9.51113 14.8485 11.1588 14.2882 12.4687 13.3454V13.9022C12.4687 14.1208 12.5615 14.3292 12.7285 14.483L16.4283 17.889C16.7771 18.2101 17.3412 18.2101 17.6863 17.889L18.7365 16.9222C19.0854 16.601 19.0854 16.0818 18.7402 15.7606ZM7.71875 12.1155C5.09512 12.1155 2.96875 10.1614 2.96875 7.74273C2.96875 5.32745 5.09141 3.36995 7.71875 3.36995C10.3424 3.36995 12.4687 5.32404 12.4687 7.74273C12.4687 10.158 10.3461 12.1155 7.71875 12.1155Z" fill="#3A3A3A"/>
</svg>
